<mxfile host="app.diagrams.net" modified="2020-11-21T16:54:43.216Z" agent="5.0 (Windows NT 10.0; Win64; x64) AppleWebKit/537.36 (KHTML, like Gecko) Chrome/86.0.4240.198 Safari/537.36" etag="bjuXbTrZF32UeZzylRYo" version="13.10.0" type="github">
  <diagram id="FPyRA7wo-ujURyNpJayc" name="Page-1">
    <mxGraphModel dx="1941" dy="1120" grid="1" gridSize="10" guides="1" tooltips="1" connect="1" arrows="1" fold="1" page="1" pageScale="1" pageWidth="827" pageHeight="1169" math="0" shadow="0">
      <root>
        <mxCell id="0" />
        <mxCell id="1" parent="0" />
        <mxCell id="eapyg9Jbp8PL5M-LjnbU-158" style="edgeStyle=orthogonalEdgeStyle;rounded=0;orthogonalLoop=1;jettySize=auto;html=1;exitX=0.25;exitY=0;exitDx=0;exitDy=0;entryX=1;entryY=0.5;entryDx=0;entryDy=0;fontSize=19;endArrow=none;endFill=0;" edge="1" parent="1" source="eapyg9Jbp8PL5M-LjnbU-1" target="eapyg9Jbp8PL5M-LjnbU-157">
          <mxGeometry relative="1" as="geometry" />
        </mxCell>
        <mxCell id="eapyg9Jbp8PL5M-LjnbU-1" value="products" style="shape=table;startSize=30;container=1;collapsible=1;childLayout=tableLayout;fixedRows=1;rowLines=0;fontStyle=1;align=center;resizeLast=1;" vertex="1" parent="1">
          <mxGeometry x="120" y="160" width="180" height="400" as="geometry" />
        </mxCell>
        <mxCell id="eapyg9Jbp8PL5M-LjnbU-2" value="" style="shape=partialRectangle;collapsible=0;dropTarget=0;pointerEvents=0;fillColor=none;top=0;left=0;bottom=1;right=0;points=[[0,0.5],[1,0.5]];portConstraint=eastwest;" vertex="1" parent="eapyg9Jbp8PL5M-LjnbU-1">
          <mxGeometry y="30" width="180" height="30" as="geometry" />
        </mxCell>
        <mxCell id="eapyg9Jbp8PL5M-LjnbU-3" value="PK" style="shape=partialRectangle;connectable=0;fillColor=none;top=0;left=0;bottom=0;right=0;fontStyle=1;overflow=hidden;" vertex="1" parent="eapyg9Jbp8PL5M-LjnbU-2">
          <mxGeometry width="30" height="30" as="geometry" />
        </mxCell>
        <mxCell id="eapyg9Jbp8PL5M-LjnbU-4" value="product_id" style="shape=partialRectangle;connectable=0;fillColor=none;top=0;left=0;bottom=0;right=0;align=left;spacingLeft=6;fontStyle=5;overflow=hidden;" vertex="1" parent="eapyg9Jbp8PL5M-LjnbU-2">
          <mxGeometry x="30" width="150" height="30" as="geometry" />
        </mxCell>
        <mxCell id="eapyg9Jbp8PL5M-LjnbU-5" value="" style="shape=partialRectangle;collapsible=0;dropTarget=0;pointerEvents=0;fillColor=none;top=0;left=0;bottom=0;right=0;points=[[0,0.5],[1,0.5]];portConstraint=eastwest;" vertex="1" parent="eapyg9Jbp8PL5M-LjnbU-1">
          <mxGeometry y="60" width="180" height="30" as="geometry" />
        </mxCell>
        <mxCell id="eapyg9Jbp8PL5M-LjnbU-6" value="" style="shape=partialRectangle;connectable=0;fillColor=none;top=0;left=0;bottom=0;right=0;editable=1;overflow=hidden;" vertex="1" parent="eapyg9Jbp8PL5M-LjnbU-5">
          <mxGeometry width="30" height="30" as="geometry" />
        </mxCell>
        <mxCell id="eapyg9Jbp8PL5M-LjnbU-7" value="asin" style="shape=partialRectangle;connectable=0;fillColor=none;top=0;left=0;bottom=0;right=0;align=left;spacingLeft=6;overflow=hidden;" vertex="1" parent="eapyg9Jbp8PL5M-LjnbU-5">
          <mxGeometry x="30" width="150" height="30" as="geometry" />
        </mxCell>
        <mxCell id="eapyg9Jbp8PL5M-LjnbU-8" value="" style="shape=partialRectangle;collapsible=0;dropTarget=0;pointerEvents=0;fillColor=none;top=0;left=0;bottom=0;right=0;points=[[0,0.5],[1,0.5]];portConstraint=eastwest;" vertex="1" parent="eapyg9Jbp8PL5M-LjnbU-1">
          <mxGeometry y="90" width="180" height="30" as="geometry" />
        </mxCell>
        <mxCell id="eapyg9Jbp8PL5M-LjnbU-9" value="" style="shape=partialRectangle;connectable=0;fillColor=none;top=0;left=0;bottom=0;right=0;editable=1;overflow=hidden;" vertex="1" parent="eapyg9Jbp8PL5M-LjnbU-8">
          <mxGeometry width="30" height="30" as="geometry" />
        </mxCell>
        <mxCell id="eapyg9Jbp8PL5M-LjnbU-10" value="is_active" style="shape=partialRectangle;connectable=0;fillColor=none;top=0;left=0;bottom=0;right=0;align=left;spacingLeft=6;overflow=hidden;" vertex="1" parent="eapyg9Jbp8PL5M-LjnbU-8">
          <mxGeometry x="30" width="150" height="30" as="geometry" />
        </mxCell>
        <mxCell id="eapyg9Jbp8PL5M-LjnbU-11" value="" style="shape=partialRectangle;collapsible=0;dropTarget=0;pointerEvents=0;fillColor=none;top=0;left=0;bottom=0;right=0;points=[[0,0.5],[1,0.5]];portConstraint=eastwest;" vertex="1" parent="eapyg9Jbp8PL5M-LjnbU-1">
          <mxGeometry y="120" width="180" height="30" as="geometry" />
        </mxCell>
        <mxCell id="eapyg9Jbp8PL5M-LjnbU-12" value="" style="shape=partialRectangle;connectable=0;fillColor=none;top=0;left=0;bottom=0;right=0;editable=1;overflow=hidden;" vertex="1" parent="eapyg9Jbp8PL5M-LjnbU-11">
          <mxGeometry width="30" height="30" as="geometry" />
        </mxCell>
        <mxCell id="eapyg9Jbp8PL5M-LjnbU-13" value="name" style="shape=partialRectangle;connectable=0;fillColor=none;top=0;left=0;bottom=0;right=0;align=left;spacingLeft=6;overflow=hidden;" vertex="1" parent="eapyg9Jbp8PL5M-LjnbU-11">
          <mxGeometry x="30" width="150" height="30" as="geometry" />
        </mxCell>
        <mxCell id="eapyg9Jbp8PL5M-LjnbU-116" style="shape=partialRectangle;collapsible=0;dropTarget=0;pointerEvents=0;fillColor=none;top=0;left=0;bottom=0;right=0;points=[[0,0.5],[1,0.5]];portConstraint=eastwest;" vertex="1" parent="eapyg9Jbp8PL5M-LjnbU-1">
          <mxGeometry y="150" width="180" height="30" as="geometry" />
        </mxCell>
        <mxCell id="eapyg9Jbp8PL5M-LjnbU-117" style="shape=partialRectangle;connectable=0;fillColor=none;top=0;left=0;bottom=0;right=0;editable=1;overflow=hidden;" vertex="1" parent="eapyg9Jbp8PL5M-LjnbU-116">
          <mxGeometry width="30" height="30" as="geometry" />
        </mxCell>
        <mxCell id="eapyg9Jbp8PL5M-LjnbU-118" value="short_description" style="shape=partialRectangle;connectable=0;fillColor=none;top=0;left=0;bottom=0;right=0;align=left;spacingLeft=6;overflow=hidden;" vertex="1" parent="eapyg9Jbp8PL5M-LjnbU-116">
          <mxGeometry x="30" width="150" height="30" as="geometry" />
        </mxCell>
        <mxCell id="eapyg9Jbp8PL5M-LjnbU-113" style="shape=partialRectangle;collapsible=0;dropTarget=0;pointerEvents=0;fillColor=none;top=0;left=0;bottom=0;right=0;points=[[0,0.5],[1,0.5]];portConstraint=eastwest;" vertex="1" parent="eapyg9Jbp8PL5M-LjnbU-1">
          <mxGeometry y="180" width="180" height="30" as="geometry" />
        </mxCell>
        <mxCell id="eapyg9Jbp8PL5M-LjnbU-114" style="shape=partialRectangle;connectable=0;fillColor=none;top=0;left=0;bottom=0;right=0;editable=1;overflow=hidden;" vertex="1" parent="eapyg9Jbp8PL5M-LjnbU-113">
          <mxGeometry width="30" height="30" as="geometry" />
        </mxCell>
        <mxCell id="eapyg9Jbp8PL5M-LjnbU-115" value="long_desctiption" style="shape=partialRectangle;connectable=0;fillColor=none;top=0;left=0;bottom=0;right=0;align=left;spacingLeft=6;overflow=hidden;" vertex="1" parent="eapyg9Jbp8PL5M-LjnbU-113">
          <mxGeometry x="30" width="150" height="30" as="geometry" />
        </mxCell>
        <mxCell id="eapyg9Jbp8PL5M-LjnbU-110" style="shape=partialRectangle;collapsible=0;dropTarget=0;pointerEvents=0;fillColor=none;top=0;left=0;bottom=0;right=0;points=[[0,0.5],[1,0.5]];portConstraint=eastwest;" vertex="1" parent="eapyg9Jbp8PL5M-LjnbU-1">
          <mxGeometry y="210" width="180" height="30" as="geometry" />
        </mxCell>
        <mxCell id="eapyg9Jbp8PL5M-LjnbU-111" style="shape=partialRectangle;connectable=0;fillColor=none;top=0;left=0;bottom=0;right=0;editable=1;overflow=hidden;" vertex="1" parent="eapyg9Jbp8PL5M-LjnbU-110">
          <mxGeometry width="30" height="30" as="geometry" />
        </mxCell>
        <mxCell id="eapyg9Jbp8PL5M-LjnbU-112" value="image_guid" style="shape=partialRectangle;connectable=0;fillColor=none;top=0;left=0;bottom=0;right=0;align=left;spacingLeft=6;overflow=hidden;" vertex="1" parent="eapyg9Jbp8PL5M-LjnbU-110">
          <mxGeometry x="30" width="150" height="30" as="geometry" />
        </mxCell>
        <mxCell id="eapyg9Jbp8PL5M-LjnbU-107" style="shape=partialRectangle;collapsible=0;dropTarget=0;pointerEvents=0;fillColor=none;top=0;left=0;bottom=0;right=0;points=[[0,0.5],[1,0.5]];portConstraint=eastwest;" vertex="1" parent="eapyg9Jbp8PL5M-LjnbU-1">
          <mxGeometry y="240" width="180" height="30" as="geometry" />
        </mxCell>
        <mxCell id="eapyg9Jbp8PL5M-LjnbU-108" style="shape=partialRectangle;connectable=0;fillColor=none;top=0;left=0;bottom=0;right=0;editable=1;overflow=hidden;" vertex="1" parent="eapyg9Jbp8PL5M-LjnbU-107">
          <mxGeometry width="30" height="30" as="geometry" />
        </mxCell>
        <mxCell id="eapyg9Jbp8PL5M-LjnbU-109" value="date_added" style="shape=partialRectangle;connectable=0;fillColor=none;top=0;left=0;bottom=0;right=0;align=left;spacingLeft=6;overflow=hidden;" vertex="1" parent="eapyg9Jbp8PL5M-LjnbU-107">
          <mxGeometry x="30" width="150" height="30" as="geometry" />
        </mxCell>
        <mxCell id="eapyg9Jbp8PL5M-LjnbU-104" style="shape=partialRectangle;collapsible=0;dropTarget=0;pointerEvents=0;fillColor=none;top=0;left=0;bottom=0;right=0;points=[[0,0.5],[1,0.5]];portConstraint=eastwest;" vertex="1" parent="eapyg9Jbp8PL5M-LjnbU-1">
          <mxGeometry y="270" width="180" height="30" as="geometry" />
        </mxCell>
        <mxCell id="eapyg9Jbp8PL5M-LjnbU-105" style="shape=partialRectangle;connectable=0;fillColor=none;top=0;left=0;bottom=0;right=0;editable=1;overflow=hidden;" vertex="1" parent="eapyg9Jbp8PL5M-LjnbU-104">
          <mxGeometry width="30" height="30" as="geometry" />
        </mxCell>
        <mxCell id="eapyg9Jbp8PL5M-LjnbU-106" value="last_modified" style="shape=partialRectangle;connectable=0;fillColor=none;top=0;left=0;bottom=0;right=0;align=left;spacingLeft=6;overflow=hidden;" vertex="1" parent="eapyg9Jbp8PL5M-LjnbU-104">
          <mxGeometry x="30" width="150" height="30" as="geometry" />
        </mxCell>
        <mxCell id="eapyg9Jbp8PL5M-LjnbU-128" style="shape=partialRectangle;collapsible=0;dropTarget=0;pointerEvents=0;fillColor=none;top=0;left=0;bottom=0;right=0;points=[[0,0.5],[1,0.5]];portConstraint=eastwest;" vertex="1" parent="eapyg9Jbp8PL5M-LjnbU-1">
          <mxGeometry y="300" width="180" height="30" as="geometry" />
        </mxCell>
        <mxCell id="eapyg9Jbp8PL5M-LjnbU-129" value="FK" style="shape=partialRectangle;connectable=0;fillColor=none;top=0;left=0;bottom=0;right=0;editable=1;overflow=hidden;" vertex="1" parent="eapyg9Jbp8PL5M-LjnbU-128">
          <mxGeometry width="30" height="30" as="geometry" />
        </mxCell>
        <mxCell id="eapyg9Jbp8PL5M-LjnbU-130" value="manufacturer_id" style="shape=partialRectangle;connectable=0;fillColor=none;top=0;left=0;bottom=0;right=0;align=left;spacingLeft=6;overflow=hidden;" vertex="1" parent="eapyg9Jbp8PL5M-LjnbU-128">
          <mxGeometry x="30" width="150" height="30" as="geometry" />
        </mxCell>
        <mxCell id="eapyg9Jbp8PL5M-LjnbU-125" style="shape=partialRectangle;collapsible=0;dropTarget=0;pointerEvents=0;fillColor=none;top=0;left=0;bottom=0;right=0;points=[[0,0.5],[1,0.5]];portConstraint=eastwest;" vertex="1" parent="eapyg9Jbp8PL5M-LjnbU-1">
          <mxGeometry y="330" width="180" height="30" as="geometry" />
        </mxCell>
        <mxCell id="eapyg9Jbp8PL5M-LjnbU-126" style="shape=partialRectangle;connectable=0;fillColor=none;top=0;left=0;bottom=0;right=0;editable=1;overflow=hidden;" vertex="1" parent="eapyg9Jbp8PL5M-LjnbU-125">
          <mxGeometry width="30" height="30" as="geometry" />
        </mxCell>
        <mxCell id="eapyg9Jbp8PL5M-LjnbU-127" value="selling_rank" style="shape=partialRectangle;connectable=0;fillColor=none;top=0;left=0;bottom=0;right=0;align=left;spacingLeft=6;overflow=hidden;" vertex="1" parent="eapyg9Jbp8PL5M-LjnbU-125">
          <mxGeometry x="30" width="150" height="30" as="geometry" />
        </mxCell>
        <mxCell id="eapyg9Jbp8PL5M-LjnbU-122" style="shape=partialRectangle;collapsible=0;dropTarget=0;pointerEvents=0;fillColor=none;top=0;left=0;bottom=0;right=0;points=[[0,0.5],[1,0.5]];portConstraint=eastwest;" vertex="1" parent="eapyg9Jbp8PL5M-LjnbU-1">
          <mxGeometry y="360" width="180" height="30" as="geometry" />
        </mxCell>
        <mxCell id="eapyg9Jbp8PL5M-LjnbU-123" value="FK" style="shape=partialRectangle;connectable=0;fillColor=none;top=0;left=0;bottom=0;right=0;editable=1;overflow=hidden;" vertex="1" parent="eapyg9Jbp8PL5M-LjnbU-122">
          <mxGeometry width="30" height="30" as="geometry" />
        </mxCell>
        <mxCell id="eapyg9Jbp8PL5M-LjnbU-124" value="category_id" style="shape=partialRectangle;connectable=0;fillColor=none;top=0;left=0;bottom=0;right=0;align=left;spacingLeft=6;overflow=hidden;" vertex="1" parent="eapyg9Jbp8PL5M-LjnbU-122">
          <mxGeometry x="30" width="150" height="30" as="geometry" />
        </mxCell>
        <mxCell id="eapyg9Jbp8PL5M-LjnbU-14" value="categories" style="shape=table;startSize=30;container=1;collapsible=1;childLayout=tableLayout;fixedRows=1;rowLines=0;fontStyle=1;align=center;resizeLast=1;" vertex="1" parent="1">
          <mxGeometry x="-280" y="160" width="180" height="100" as="geometry" />
        </mxCell>
        <mxCell id="eapyg9Jbp8PL5M-LjnbU-15" value="" style="shape=partialRectangle;collapsible=0;dropTarget=0;pointerEvents=0;fillColor=none;top=0;left=0;bottom=1;right=0;points=[[0,0.5],[1,0.5]];portConstraint=eastwest;" vertex="1" parent="eapyg9Jbp8PL5M-LjnbU-14">
          <mxGeometry y="30" width="180" height="30" as="geometry" />
        </mxCell>
        <mxCell id="eapyg9Jbp8PL5M-LjnbU-16" value="PK" style="shape=partialRectangle;connectable=0;fillColor=none;top=0;left=0;bottom=0;right=0;fontStyle=1;overflow=hidden;" vertex="1" parent="eapyg9Jbp8PL5M-LjnbU-15">
          <mxGeometry width="30" height="30" as="geometry" />
        </mxCell>
        <mxCell id="eapyg9Jbp8PL5M-LjnbU-17" value="category_id" style="shape=partialRectangle;connectable=0;fillColor=none;top=0;left=0;bottom=0;right=0;align=left;spacingLeft=6;fontStyle=5;overflow=hidden;" vertex="1" parent="eapyg9Jbp8PL5M-LjnbU-15">
          <mxGeometry x="30" width="150" height="30" as="geometry" />
        </mxCell>
        <mxCell id="eapyg9Jbp8PL5M-LjnbU-18" value="" style="shape=partialRectangle;collapsible=0;dropTarget=0;pointerEvents=0;fillColor=none;top=0;left=0;bottom=0;right=0;points=[[0,0.5],[1,0.5]];portConstraint=eastwest;" vertex="1" parent="eapyg9Jbp8PL5M-LjnbU-14">
          <mxGeometry y="60" width="180" height="30" as="geometry" />
        </mxCell>
        <mxCell id="eapyg9Jbp8PL5M-LjnbU-19" value="" style="shape=partialRectangle;connectable=0;fillColor=none;top=0;left=0;bottom=0;right=0;editable=1;overflow=hidden;" vertex="1" parent="eapyg9Jbp8PL5M-LjnbU-18">
          <mxGeometry width="30" height="30" as="geometry" />
        </mxCell>
        <mxCell id="eapyg9Jbp8PL5M-LjnbU-20" value="name" style="shape=partialRectangle;connectable=0;fillColor=none;top=0;left=0;bottom=0;right=0;align=left;spacingLeft=6;overflow=hidden;" vertex="1" parent="eapyg9Jbp8PL5M-LjnbU-18">
          <mxGeometry x="30" width="150" height="30" as="geometry" />
        </mxCell>
        <mxCell id="eapyg9Jbp8PL5M-LjnbU-27" value="contact_persons" style="shape=table;startSize=30;container=1;collapsible=1;childLayout=tableLayout;fixedRows=1;rowLines=0;fontStyle=1;align=center;resizeLast=1;" vertex="1" parent="1">
          <mxGeometry x="1020" y="835" width="180" height="250" as="geometry" />
        </mxCell>
        <mxCell id="eapyg9Jbp8PL5M-LjnbU-28" value="" style="shape=partialRectangle;collapsible=0;dropTarget=0;pointerEvents=0;fillColor=none;top=0;left=0;bottom=1;right=0;points=[[0,0.5],[1,0.5]];portConstraint=eastwest;" vertex="1" parent="eapyg9Jbp8PL5M-LjnbU-27">
          <mxGeometry y="30" width="180" height="30" as="geometry" />
        </mxCell>
        <mxCell id="eapyg9Jbp8PL5M-LjnbU-29" value="PK" style="shape=partialRectangle;connectable=0;fillColor=none;top=0;left=0;bottom=0;right=0;fontStyle=1;overflow=hidden;" vertex="1" parent="eapyg9Jbp8PL5M-LjnbU-28">
          <mxGeometry width="30" height="30" as="geometry" />
        </mxCell>
        <mxCell id="eapyg9Jbp8PL5M-LjnbU-30" value="contact_person_id" style="shape=partialRectangle;connectable=0;fillColor=none;top=0;left=0;bottom=0;right=0;align=left;spacingLeft=6;fontStyle=5;overflow=hidden;" vertex="1" parent="eapyg9Jbp8PL5M-LjnbU-28">
          <mxGeometry x="30" width="150" height="30" as="geometry" />
        </mxCell>
        <mxCell id="eapyg9Jbp8PL5M-LjnbU-31" value="" style="shape=partialRectangle;collapsible=0;dropTarget=0;pointerEvents=0;fillColor=none;top=0;left=0;bottom=0;right=0;points=[[0,0.5],[1,0.5]];portConstraint=eastwest;" vertex="1" parent="eapyg9Jbp8PL5M-LjnbU-27">
          <mxGeometry y="60" width="180" height="30" as="geometry" />
        </mxCell>
        <mxCell id="eapyg9Jbp8PL5M-LjnbU-32" value="" style="shape=partialRectangle;connectable=0;fillColor=none;top=0;left=0;bottom=0;right=0;editable=1;overflow=hidden;" vertex="1" parent="eapyg9Jbp8PL5M-LjnbU-31">
          <mxGeometry width="30" height="30" as="geometry" />
        </mxCell>
        <mxCell id="eapyg9Jbp8PL5M-LjnbU-33" value="first_name" style="shape=partialRectangle;connectable=0;fillColor=none;top=0;left=0;bottom=0;right=0;align=left;spacingLeft=6;overflow=hidden;" vertex="1" parent="eapyg9Jbp8PL5M-LjnbU-31">
          <mxGeometry x="30" width="150" height="30" as="geometry" />
        </mxCell>
        <mxCell id="eapyg9Jbp8PL5M-LjnbU-34" value="" style="shape=partialRectangle;collapsible=0;dropTarget=0;pointerEvents=0;fillColor=none;top=0;left=0;bottom=0;right=0;points=[[0,0.5],[1,0.5]];portConstraint=eastwest;" vertex="1" parent="eapyg9Jbp8PL5M-LjnbU-27">
          <mxGeometry y="90" width="180" height="30" as="geometry" />
        </mxCell>
        <mxCell id="eapyg9Jbp8PL5M-LjnbU-35" value="" style="shape=partialRectangle;connectable=0;fillColor=none;top=0;left=0;bottom=0;right=0;editable=1;overflow=hidden;" vertex="1" parent="eapyg9Jbp8PL5M-LjnbU-34">
          <mxGeometry width="30" height="30" as="geometry" />
        </mxCell>
        <mxCell id="eapyg9Jbp8PL5M-LjnbU-36" value="last_name" style="shape=partialRectangle;connectable=0;fillColor=none;top=0;left=0;bottom=0;right=0;align=left;spacingLeft=6;overflow=hidden;" vertex="1" parent="eapyg9Jbp8PL5M-LjnbU-34">
          <mxGeometry x="30" width="150" height="30" as="geometry" />
        </mxCell>
        <mxCell id="eapyg9Jbp8PL5M-LjnbU-37" value="" style="shape=partialRectangle;collapsible=0;dropTarget=0;pointerEvents=0;fillColor=none;top=0;left=0;bottom=0;right=0;points=[[0,0.5],[1,0.5]];portConstraint=eastwest;" vertex="1" parent="eapyg9Jbp8PL5M-LjnbU-27">
          <mxGeometry y="120" width="180" height="30" as="geometry" />
        </mxCell>
        <mxCell id="eapyg9Jbp8PL5M-LjnbU-38" value="" style="shape=partialRectangle;connectable=0;fillColor=none;top=0;left=0;bottom=0;right=0;editable=1;overflow=hidden;" vertex="1" parent="eapyg9Jbp8PL5M-LjnbU-37">
          <mxGeometry width="30" height="30" as="geometry" />
        </mxCell>
        <mxCell id="eapyg9Jbp8PL5M-LjnbU-39" value="gender" style="shape=partialRectangle;connectable=0;fillColor=none;top=0;left=0;bottom=0;right=0;align=left;spacingLeft=6;overflow=hidden;" vertex="1" parent="eapyg9Jbp8PL5M-LjnbU-37">
          <mxGeometry x="30" width="150" height="30" as="geometry" />
        </mxCell>
        <mxCell id="eapyg9Jbp8PL5M-LjnbU-101" style="shape=partialRectangle;collapsible=0;dropTarget=0;pointerEvents=0;fillColor=none;top=0;left=0;bottom=0;right=0;points=[[0,0.5],[1,0.5]];portConstraint=eastwest;" vertex="1" parent="eapyg9Jbp8PL5M-LjnbU-27">
          <mxGeometry y="150" width="180" height="30" as="geometry" />
        </mxCell>
        <mxCell id="eapyg9Jbp8PL5M-LjnbU-102" style="shape=partialRectangle;connectable=0;fillColor=none;top=0;left=0;bottom=0;right=0;editable=1;overflow=hidden;" vertex="1" parent="eapyg9Jbp8PL5M-LjnbU-101">
          <mxGeometry width="30" height="30" as="geometry" />
        </mxCell>
        <mxCell id="eapyg9Jbp8PL5M-LjnbU-103" value="e-mail" style="shape=partialRectangle;connectable=0;fillColor=none;top=0;left=0;bottom=0;right=0;align=left;spacingLeft=6;overflow=hidden;" vertex="1" parent="eapyg9Jbp8PL5M-LjnbU-101">
          <mxGeometry x="30" width="150" height="30" as="geometry" />
        </mxCell>
        <mxCell id="eapyg9Jbp8PL5M-LjnbU-98" style="shape=partialRectangle;collapsible=0;dropTarget=0;pointerEvents=0;fillColor=none;top=0;left=0;bottom=0;right=0;points=[[0,0.5],[1,0.5]];portConstraint=eastwest;" vertex="1" parent="eapyg9Jbp8PL5M-LjnbU-27">
          <mxGeometry y="180" width="180" height="30" as="geometry" />
        </mxCell>
        <mxCell id="eapyg9Jbp8PL5M-LjnbU-99" style="shape=partialRectangle;connectable=0;fillColor=none;top=0;left=0;bottom=0;right=0;editable=1;overflow=hidden;" vertex="1" parent="eapyg9Jbp8PL5M-LjnbU-98">
          <mxGeometry width="30" height="30" as="geometry" />
        </mxCell>
        <mxCell id="eapyg9Jbp8PL5M-LjnbU-100" value="phone" style="shape=partialRectangle;connectable=0;fillColor=none;top=0;left=0;bottom=0;right=0;align=left;spacingLeft=6;overflow=hidden;" vertex="1" parent="eapyg9Jbp8PL5M-LjnbU-98">
          <mxGeometry x="30" width="150" height="30" as="geometry" />
        </mxCell>
        <mxCell id="eapyg9Jbp8PL5M-LjnbU-95" style="shape=partialRectangle;collapsible=0;dropTarget=0;pointerEvents=0;fillColor=none;top=0;left=0;bottom=0;right=0;points=[[0,0.5],[1,0.5]];portConstraint=eastwest;" vertex="1" parent="eapyg9Jbp8PL5M-LjnbU-27">
          <mxGeometry y="210" width="180" height="30" as="geometry" />
        </mxCell>
        <mxCell id="eapyg9Jbp8PL5M-LjnbU-96" value="FK" style="shape=partialRectangle;connectable=0;fillColor=none;top=0;left=0;bottom=0;right=0;editable=1;overflow=hidden;" vertex="1" parent="eapyg9Jbp8PL5M-LjnbU-95">
          <mxGeometry width="30" height="30" as="geometry" />
        </mxCell>
        <mxCell id="eapyg9Jbp8PL5M-LjnbU-97" value="vendor_id" style="shape=partialRectangle;connectable=0;fillColor=none;top=0;left=0;bottom=0;right=0;align=left;spacingLeft=6;overflow=hidden;" vertex="1" parent="eapyg9Jbp8PL5M-LjnbU-95">
          <mxGeometry x="30" width="150" height="30" as="geometry" />
        </mxCell>
        <mxCell id="eapyg9Jbp8PL5M-LjnbU-40" value="manufacturers" style="shape=table;startSize=30;container=1;collapsible=1;childLayout=tableLayout;fixedRows=1;rowLines=0;fontStyle=1;align=center;resizeLast=1;" vertex="1" parent="1">
          <mxGeometry x="110" y="910" width="180" height="100" as="geometry" />
        </mxCell>
        <mxCell id="eapyg9Jbp8PL5M-LjnbU-41" value="" style="shape=partialRectangle;collapsible=0;dropTarget=0;pointerEvents=0;fillColor=none;top=0;left=0;bottom=1;right=0;points=[[0,0.5],[1,0.5]];portConstraint=eastwest;" vertex="1" parent="eapyg9Jbp8PL5M-LjnbU-40">
          <mxGeometry y="30" width="180" height="30" as="geometry" />
        </mxCell>
        <mxCell id="eapyg9Jbp8PL5M-LjnbU-42" value="PK" style="shape=partialRectangle;connectable=0;fillColor=none;top=0;left=0;bottom=0;right=0;fontStyle=1;overflow=hidden;" vertex="1" parent="eapyg9Jbp8PL5M-LjnbU-41">
          <mxGeometry width="30" height="30" as="geometry" />
        </mxCell>
        <mxCell id="eapyg9Jbp8PL5M-LjnbU-43" value="manufacturer_id" style="shape=partialRectangle;connectable=0;fillColor=none;top=0;left=0;bottom=0;right=0;align=left;spacingLeft=6;fontStyle=5;overflow=hidden;" vertex="1" parent="eapyg9Jbp8PL5M-LjnbU-41">
          <mxGeometry x="30" width="150" height="30" as="geometry" />
        </mxCell>
        <mxCell id="eapyg9Jbp8PL5M-LjnbU-44" value="" style="shape=partialRectangle;collapsible=0;dropTarget=0;pointerEvents=0;fillColor=none;top=0;left=0;bottom=0;right=0;points=[[0,0.5],[1,0.5]];portConstraint=eastwest;" vertex="1" parent="eapyg9Jbp8PL5M-LjnbU-40">
          <mxGeometry y="60" width="180" height="30" as="geometry" />
        </mxCell>
        <mxCell id="eapyg9Jbp8PL5M-LjnbU-45" value="" style="shape=partialRectangle;connectable=0;fillColor=none;top=0;left=0;bottom=0;right=0;editable=1;overflow=hidden;" vertex="1" parent="eapyg9Jbp8PL5M-LjnbU-44">
          <mxGeometry width="30" height="30" as="geometry" />
        </mxCell>
        <mxCell id="eapyg9Jbp8PL5M-LjnbU-46" value="name" style="shape=partialRectangle;connectable=0;fillColor=none;top=0;left=0;bottom=0;right=0;align=left;spacingLeft=6;overflow=hidden;" vertex="1" parent="eapyg9Jbp8PL5M-LjnbU-44">
          <mxGeometry x="30" width="150" height="30" as="geometry" />
        </mxCell>
        <mxCell id="eapyg9Jbp8PL5M-LjnbU-53" value="prices" style="shape=table;startSize=30;container=1;collapsible=1;childLayout=tableLayout;fixedRows=1;rowLines=0;fontStyle=1;align=center;resizeLast=1;" vertex="1" parent="1">
          <mxGeometry x="730" y="585" width="180" height="190" as="geometry" />
        </mxCell>
        <mxCell id="eapyg9Jbp8PL5M-LjnbU-54" value="" style="shape=partialRectangle;collapsible=0;dropTarget=0;pointerEvents=0;fillColor=none;top=0;left=0;bottom=1;right=0;points=[[0,0.5],[1,0.5]];portConstraint=eastwest;" vertex="1" parent="eapyg9Jbp8PL5M-LjnbU-53">
          <mxGeometry y="30" width="180" height="30" as="geometry" />
        </mxCell>
        <mxCell id="eapyg9Jbp8PL5M-LjnbU-55" value="PK" style="shape=partialRectangle;connectable=0;fillColor=none;top=0;left=0;bottom=0;right=0;fontStyle=1;overflow=hidden;" vertex="1" parent="eapyg9Jbp8PL5M-LjnbU-54">
          <mxGeometry width="30" height="30" as="geometry" />
        </mxCell>
        <mxCell id="eapyg9Jbp8PL5M-LjnbU-56" value="price_id" style="shape=partialRectangle;connectable=0;fillColor=none;top=0;left=0;bottom=0;right=0;align=left;spacingLeft=6;fontStyle=5;overflow=hidden;" vertex="1" parent="eapyg9Jbp8PL5M-LjnbU-54">
          <mxGeometry x="30" width="150" height="30" as="geometry" />
        </mxCell>
        <mxCell id="eapyg9Jbp8PL5M-LjnbU-57" value="" style="shape=partialRectangle;collapsible=0;dropTarget=0;pointerEvents=0;fillColor=none;top=0;left=0;bottom=0;right=0;points=[[0,0.5],[1,0.5]];portConstraint=eastwest;" vertex="1" parent="eapyg9Jbp8PL5M-LjnbU-53">
          <mxGeometry y="60" width="180" height="30" as="geometry" />
        </mxCell>
        <mxCell id="eapyg9Jbp8PL5M-LjnbU-58" value="FK" style="shape=partialRectangle;connectable=0;fillColor=none;top=0;left=0;bottom=0;right=0;editable=1;overflow=hidden;" vertex="1" parent="eapyg9Jbp8PL5M-LjnbU-57">
          <mxGeometry width="30" height="30" as="geometry" />
        </mxCell>
        <mxCell id="eapyg9Jbp8PL5M-LjnbU-59" value="product_id" style="shape=partialRectangle;connectable=0;fillColor=none;top=0;left=0;bottom=0;right=0;align=left;spacingLeft=6;overflow=hidden;" vertex="1" parent="eapyg9Jbp8PL5M-LjnbU-57">
          <mxGeometry x="30" width="150" height="30" as="geometry" />
        </mxCell>
        <mxCell id="eapyg9Jbp8PL5M-LjnbU-60" value="" style="shape=partialRectangle;collapsible=0;dropTarget=0;pointerEvents=0;fillColor=none;top=0;left=0;bottom=0;right=0;points=[[0,0.5],[1,0.5]];portConstraint=eastwest;" vertex="1" parent="eapyg9Jbp8PL5M-LjnbU-53">
          <mxGeometry y="90" width="180" height="30" as="geometry" />
        </mxCell>
        <mxCell id="eapyg9Jbp8PL5M-LjnbU-61" value="FK" style="shape=partialRectangle;connectable=0;fillColor=none;top=0;left=0;bottom=0;right=0;editable=1;overflow=hidden;" vertex="1" parent="eapyg9Jbp8PL5M-LjnbU-60">
          <mxGeometry width="30" height="30" as="geometry" />
        </mxCell>
        <mxCell id="eapyg9Jbp8PL5M-LjnbU-62" value="vendor_id" style="shape=partialRectangle;connectable=0;fillColor=none;top=0;left=0;bottom=0;right=0;align=left;spacingLeft=6;overflow=hidden;" vertex="1" parent="eapyg9Jbp8PL5M-LjnbU-60">
          <mxGeometry x="30" width="150" height="30" as="geometry" />
        </mxCell>
        <mxCell id="eapyg9Jbp8PL5M-LjnbU-63" value="" style="shape=partialRectangle;collapsible=0;dropTarget=0;pointerEvents=0;fillColor=none;top=0;left=0;bottom=0;right=0;points=[[0,0.5],[1,0.5]];portConstraint=eastwest;" vertex="1" parent="eapyg9Jbp8PL5M-LjnbU-53">
          <mxGeometry y="120" width="180" height="30" as="geometry" />
        </mxCell>
        <mxCell id="eapyg9Jbp8PL5M-LjnbU-64" value="" style="shape=partialRectangle;connectable=0;fillColor=none;top=0;left=0;bottom=0;right=0;editable=1;overflow=hidden;" vertex="1" parent="eapyg9Jbp8PL5M-LjnbU-63">
          <mxGeometry width="30" height="30" as="geometry" />
        </mxCell>
        <mxCell id="eapyg9Jbp8PL5M-LjnbU-65" value="price_in_cents" style="shape=partialRectangle;connectable=0;fillColor=none;top=0;left=0;bottom=0;right=0;align=left;spacingLeft=6;overflow=hidden;" vertex="1" parent="eapyg9Jbp8PL5M-LjnbU-63">
          <mxGeometry x="30" width="150" height="30" as="geometry" />
        </mxCell>
        <mxCell id="eapyg9Jbp8PL5M-LjnbU-143" style="shape=partialRectangle;collapsible=0;dropTarget=0;pointerEvents=0;fillColor=none;top=0;left=0;bottom=0;right=0;points=[[0,0.5],[1,0.5]];portConstraint=eastwest;" vertex="1" parent="eapyg9Jbp8PL5M-LjnbU-53">
          <mxGeometry y="150" width="180" height="30" as="geometry" />
        </mxCell>
        <mxCell id="eapyg9Jbp8PL5M-LjnbU-144" style="shape=partialRectangle;connectable=0;fillColor=none;top=0;left=0;bottom=0;right=0;editable=1;overflow=hidden;" vertex="1" parent="eapyg9Jbp8PL5M-LjnbU-143">
          <mxGeometry width="30" height="30" as="geometry" />
        </mxCell>
        <mxCell id="eapyg9Jbp8PL5M-LjnbU-145" value="timestamp" style="shape=partialRectangle;connectable=0;fillColor=none;top=0;left=0;bottom=0;right=0;align=left;spacingLeft=6;overflow=hidden;" vertex="1" parent="eapyg9Jbp8PL5M-LjnbU-143">
          <mxGeometry x="30" width="150" height="30" as="geometry" />
        </mxCell>
        <mxCell id="eapyg9Jbp8PL5M-LjnbU-66" value="product_links" style="shape=table;startSize=30;container=1;collapsible=1;childLayout=tableLayout;fixedRows=1;rowLines=0;fontStyle=1;align=center;resizeLast=1;" vertex="1" parent="1">
          <mxGeometry x="450" y="940" width="180" height="160" as="geometry" />
        </mxCell>
        <mxCell id="eapyg9Jbp8PL5M-LjnbU-67" value="" style="shape=partialRectangle;collapsible=0;dropTarget=0;pointerEvents=0;fillColor=none;top=0;left=0;bottom=1;right=0;points=[[0,0.5],[1,0.5]];portConstraint=eastwest;" vertex="1" parent="eapyg9Jbp8PL5M-LjnbU-66">
          <mxGeometry y="30" width="180" height="30" as="geometry" />
        </mxCell>
        <mxCell id="eapyg9Jbp8PL5M-LjnbU-68" value="PK" style="shape=partialRectangle;connectable=0;fillColor=none;top=0;left=0;bottom=0;right=0;fontStyle=1;overflow=hidden;" vertex="1" parent="eapyg9Jbp8PL5M-LjnbU-67">
          <mxGeometry width="30" height="30" as="geometry" />
        </mxCell>
        <mxCell id="eapyg9Jbp8PL5M-LjnbU-69" value="product_link_id" style="shape=partialRectangle;connectable=0;fillColor=none;top=0;left=0;bottom=0;right=0;align=left;spacingLeft=6;fontStyle=5;overflow=hidden;" vertex="1" parent="eapyg9Jbp8PL5M-LjnbU-67">
          <mxGeometry x="30" width="150" height="30" as="geometry" />
        </mxCell>
        <mxCell id="eapyg9Jbp8PL5M-LjnbU-70" value="" style="shape=partialRectangle;collapsible=0;dropTarget=0;pointerEvents=0;fillColor=none;top=0;left=0;bottom=0;right=0;points=[[0,0.5],[1,0.5]];portConstraint=eastwest;" vertex="1" parent="eapyg9Jbp8PL5M-LjnbU-66">
          <mxGeometry y="60" width="180" height="30" as="geometry" />
        </mxCell>
        <mxCell id="eapyg9Jbp8PL5M-LjnbU-71" value="FK" style="shape=partialRectangle;connectable=0;fillColor=none;top=0;left=0;bottom=0;right=0;editable=1;overflow=hidden;" vertex="1" parent="eapyg9Jbp8PL5M-LjnbU-70">
          <mxGeometry width="30" height="30" as="geometry" />
        </mxCell>
        <mxCell id="eapyg9Jbp8PL5M-LjnbU-72" value="product_id" style="shape=partialRectangle;connectable=0;fillColor=none;top=0;left=0;bottom=0;right=0;align=left;spacingLeft=6;overflow=hidden;" vertex="1" parent="eapyg9Jbp8PL5M-LjnbU-70">
          <mxGeometry x="30" width="150" height="30" as="geometry" />
        </mxCell>
        <mxCell id="eapyg9Jbp8PL5M-LjnbU-73" value="" style="shape=partialRectangle;collapsible=0;dropTarget=0;pointerEvents=0;fillColor=none;top=0;left=0;bottom=0;right=0;points=[[0,0.5],[1,0.5]];portConstraint=eastwest;" vertex="1" parent="eapyg9Jbp8PL5M-LjnbU-66">
          <mxGeometry y="90" width="180" height="30" as="geometry" />
        </mxCell>
        <mxCell id="eapyg9Jbp8PL5M-LjnbU-74" value="FK" style="shape=partialRectangle;connectable=0;fillColor=none;top=0;left=0;bottom=0;right=0;editable=1;overflow=hidden;" vertex="1" parent="eapyg9Jbp8PL5M-LjnbU-73">
          <mxGeometry width="30" height="30" as="geometry" />
        </mxCell>
        <mxCell id="eapyg9Jbp8PL5M-LjnbU-75" value="vendor_id" style="shape=partialRectangle;connectable=0;fillColor=none;top=0;left=0;bottom=0;right=0;align=left;spacingLeft=6;overflow=hidden;" vertex="1" parent="eapyg9Jbp8PL5M-LjnbU-73">
          <mxGeometry x="30" width="150" height="30" as="geometry" />
        </mxCell>
        <mxCell id="eapyg9Jbp8PL5M-LjnbU-76" value="" style="shape=partialRectangle;collapsible=0;dropTarget=0;pointerEvents=0;fillColor=none;top=0;left=0;bottom=0;right=0;points=[[0,0.5],[1,0.5]];portConstraint=eastwest;" vertex="1" parent="eapyg9Jbp8PL5M-LjnbU-66">
          <mxGeometry y="120" width="180" height="30" as="geometry" />
        </mxCell>
        <mxCell id="eapyg9Jbp8PL5M-LjnbU-77" value="" style="shape=partialRectangle;connectable=0;fillColor=none;top=0;left=0;bottom=0;right=0;editable=1;overflow=hidden;" vertex="1" parent="eapyg9Jbp8PL5M-LjnbU-76">
          <mxGeometry width="30" height="30" as="geometry" />
        </mxCell>
        <mxCell id="eapyg9Jbp8PL5M-LjnbU-78" value="url" style="shape=partialRectangle;connectable=0;fillColor=none;top=0;left=0;bottom=0;right=0;align=left;spacingLeft=6;overflow=hidden;" vertex="1" parent="eapyg9Jbp8PL5M-LjnbU-76">
          <mxGeometry x="30" width="150" height="30" as="geometry" />
        </mxCell>
        <mxCell id="eapyg9Jbp8PL5M-LjnbU-79" value="vendors" style="shape=table;startSize=30;container=1;collapsible=1;childLayout=tableLayout;fixedRows=1;rowLines=0;fontStyle=1;align=center;resizeLast=1;" vertex="1" parent="1">
          <mxGeometry x="770" y="160" width="180" height="280" as="geometry" />
        </mxCell>
        <mxCell id="eapyg9Jbp8PL5M-LjnbU-80" value="" style="shape=partialRectangle;collapsible=0;dropTarget=0;pointerEvents=0;fillColor=none;top=0;left=0;bottom=1;right=0;points=[[0,0.5],[1,0.5]];portConstraint=eastwest;" vertex="1" parent="eapyg9Jbp8PL5M-LjnbU-79">
          <mxGeometry y="30" width="180" height="30" as="geometry" />
        </mxCell>
        <mxCell id="eapyg9Jbp8PL5M-LjnbU-81" value="PK" style="shape=partialRectangle;connectable=0;fillColor=none;top=0;left=0;bottom=0;right=0;fontStyle=1;overflow=hidden;" vertex="1" parent="eapyg9Jbp8PL5M-LjnbU-80">
          <mxGeometry width="30" height="30" as="geometry" />
        </mxCell>
        <mxCell id="eapyg9Jbp8PL5M-LjnbU-82" value="vendor_id" style="shape=partialRectangle;connectable=0;fillColor=none;top=0;left=0;bottom=0;right=0;align=left;spacingLeft=6;fontStyle=5;overflow=hidden;" vertex="1" parent="eapyg9Jbp8PL5M-LjnbU-80">
          <mxGeometry x="30" width="150" height="30" as="geometry" />
        </mxCell>
        <mxCell id="eapyg9Jbp8PL5M-LjnbU-83" value="" style="shape=partialRectangle;collapsible=0;dropTarget=0;pointerEvents=0;fillColor=none;top=0;left=0;bottom=0;right=0;points=[[0,0.5],[1,0.5]];portConstraint=eastwest;" vertex="1" parent="eapyg9Jbp8PL5M-LjnbU-79">
          <mxGeometry y="60" width="180" height="30" as="geometry" />
        </mxCell>
        <mxCell id="eapyg9Jbp8PL5M-LjnbU-84" value="" style="shape=partialRectangle;connectable=0;fillColor=none;top=0;left=0;bottom=0;right=0;editable=1;overflow=hidden;" vertex="1" parent="eapyg9Jbp8PL5M-LjnbU-83">
          <mxGeometry width="30" height="30" as="geometry" />
        </mxCell>
        <mxCell id="eapyg9Jbp8PL5M-LjnbU-85" value="name" style="shape=partialRectangle;connectable=0;fillColor=none;top=0;left=0;bottom=0;right=0;align=left;spacingLeft=6;overflow=hidden;" vertex="1" parent="eapyg9Jbp8PL5M-LjnbU-83">
          <mxGeometry x="30" width="150" height="30" as="geometry" />
        </mxCell>
        <mxCell id="eapyg9Jbp8PL5M-LjnbU-86" value="" style="shape=partialRectangle;collapsible=0;dropTarget=0;pointerEvents=0;fillColor=none;top=0;left=0;bottom=0;right=0;points=[[0,0.5],[1,0.5]];portConstraint=eastwest;" vertex="1" parent="eapyg9Jbp8PL5M-LjnbU-79">
          <mxGeometry y="90" width="180" height="30" as="geometry" />
        </mxCell>
        <mxCell id="eapyg9Jbp8PL5M-LjnbU-87" value="" style="shape=partialRectangle;connectable=0;fillColor=none;top=0;left=0;bottom=0;right=0;editable=1;overflow=hidden;" vertex="1" parent="eapyg9Jbp8PL5M-LjnbU-86">
          <mxGeometry width="30" height="30" as="geometry" />
        </mxCell>
        <mxCell id="eapyg9Jbp8PL5M-LjnbU-88" value="streetname" style="shape=partialRectangle;connectable=0;fillColor=none;top=0;left=0;bottom=0;right=0;align=left;spacingLeft=6;overflow=hidden;" vertex="1" parent="eapyg9Jbp8PL5M-LjnbU-86">
          <mxGeometry x="30" width="150" height="30" as="geometry" />
        </mxCell>
        <mxCell id="eapyg9Jbp8PL5M-LjnbU-89" value="" style="shape=partialRectangle;collapsible=0;dropTarget=0;pointerEvents=0;fillColor=none;top=0;left=0;bottom=0;right=0;points=[[0,0.5],[1,0.5]];portConstraint=eastwest;" vertex="1" parent="eapyg9Jbp8PL5M-LjnbU-79">
          <mxGeometry y="120" width="180" height="30" as="geometry" />
        </mxCell>
        <mxCell id="eapyg9Jbp8PL5M-LjnbU-90" value="" style="shape=partialRectangle;connectable=0;fillColor=none;top=0;left=0;bottom=0;right=0;editable=1;overflow=hidden;" vertex="1" parent="eapyg9Jbp8PL5M-LjnbU-89">
          <mxGeometry width="30" height="30" as="geometry" />
        </mxCell>
        <mxCell id="eapyg9Jbp8PL5M-LjnbU-91" value="zip_code" style="shape=partialRectangle;connectable=0;fillColor=none;top=0;left=0;bottom=0;right=0;align=left;spacingLeft=6;overflow=hidden;" vertex="1" parent="eapyg9Jbp8PL5M-LjnbU-89">
          <mxGeometry x="30" width="150" height="30" as="geometry" />
        </mxCell>
        <mxCell id="eapyg9Jbp8PL5M-LjnbU-140" style="shape=partialRectangle;collapsible=0;dropTarget=0;pointerEvents=0;fillColor=none;top=0;left=0;bottom=0;right=0;points=[[0,0.5],[1,0.5]];portConstraint=eastwest;" vertex="1" parent="eapyg9Jbp8PL5M-LjnbU-79">
          <mxGeometry y="150" width="180" height="30" as="geometry" />
        </mxCell>
        <mxCell id="eapyg9Jbp8PL5M-LjnbU-141" style="shape=partialRectangle;connectable=0;fillColor=none;top=0;left=0;bottom=0;right=0;editable=1;overflow=hidden;" vertex="1" parent="eapyg9Jbp8PL5M-LjnbU-140">
          <mxGeometry width="30" height="30" as="geometry" />
        </mxCell>
        <mxCell id="eapyg9Jbp8PL5M-LjnbU-142" value="city" style="shape=partialRectangle;connectable=0;fillColor=none;top=0;left=0;bottom=0;right=0;align=left;spacingLeft=6;overflow=hidden;" vertex="1" parent="eapyg9Jbp8PL5M-LjnbU-140">
          <mxGeometry x="30" width="150" height="30" as="geometry" />
        </mxCell>
        <mxCell id="eapyg9Jbp8PL5M-LjnbU-137" style="shape=partialRectangle;collapsible=0;dropTarget=0;pointerEvents=0;fillColor=none;top=0;left=0;bottom=0;right=0;points=[[0,0.5],[1,0.5]];portConstraint=eastwest;" vertex="1" parent="eapyg9Jbp8PL5M-LjnbU-79">
          <mxGeometry y="180" width="180" height="30" as="geometry" />
        </mxCell>
        <mxCell id="eapyg9Jbp8PL5M-LjnbU-138" style="shape=partialRectangle;connectable=0;fillColor=none;top=0;left=0;bottom=0;right=0;editable=1;overflow=hidden;" vertex="1" parent="eapyg9Jbp8PL5M-LjnbU-137">
          <mxGeometry width="30" height="30" as="geometry" />
        </mxCell>
        <mxCell id="eapyg9Jbp8PL5M-LjnbU-139" value="country_code" style="shape=partialRectangle;connectable=0;fillColor=none;top=0;left=0;bottom=0;right=0;align=left;spacingLeft=6;overflow=hidden;" vertex="1" parent="eapyg9Jbp8PL5M-LjnbU-137">
          <mxGeometry x="30" width="150" height="30" as="geometry" />
        </mxCell>
        <mxCell id="eapyg9Jbp8PL5M-LjnbU-134" style="shape=partialRectangle;collapsible=0;dropTarget=0;pointerEvents=0;fillColor=none;top=0;left=0;bottom=0;right=0;points=[[0,0.5],[1,0.5]];portConstraint=eastwest;" vertex="1" parent="eapyg9Jbp8PL5M-LjnbU-79">
          <mxGeometry y="210" width="180" height="30" as="geometry" />
        </mxCell>
        <mxCell id="eapyg9Jbp8PL5M-LjnbU-135" style="shape=partialRectangle;connectable=0;fillColor=none;top=0;left=0;bottom=0;right=0;editable=1;overflow=hidden;" vertex="1" parent="eapyg9Jbp8PL5M-LjnbU-134">
          <mxGeometry width="30" height="30" as="geometry" />
        </mxCell>
        <mxCell id="eapyg9Jbp8PL5M-LjnbU-136" value="phone" style="shape=partialRectangle;connectable=0;fillColor=none;top=0;left=0;bottom=0;right=0;align=left;spacingLeft=6;overflow=hidden;" vertex="1" parent="eapyg9Jbp8PL5M-LjnbU-134">
          <mxGeometry x="30" width="150" height="30" as="geometry" />
        </mxCell>
        <mxCell id="eapyg9Jbp8PL5M-LjnbU-131" style="shape=partialRectangle;collapsible=0;dropTarget=0;pointerEvents=0;fillColor=none;top=0;left=0;bottom=0;right=0;points=[[0,0.5],[1,0.5]];portConstraint=eastwest;" vertex="1" parent="eapyg9Jbp8PL5M-LjnbU-79">
          <mxGeometry y="240" width="180" height="30" as="geometry" />
        </mxCell>
        <mxCell id="eapyg9Jbp8PL5M-LjnbU-132" style="shape=partialRectangle;connectable=0;fillColor=none;top=0;left=0;bottom=0;right=0;editable=1;overflow=hidden;" vertex="1" parent="eapyg9Jbp8PL5M-LjnbU-131">
          <mxGeometry width="30" height="30" as="geometry" />
        </mxCell>
        <mxCell id="eapyg9Jbp8PL5M-LjnbU-133" value="website" style="shape=partialRectangle;connectable=0;fillColor=none;top=0;left=0;bottom=0;right=0;align=left;spacingLeft=6;overflow=hidden;" vertex="1" parent="eapyg9Jbp8PL5M-LjnbU-131">
          <mxGeometry x="30" width="150" height="30" as="geometry" />
        </mxCell>
        <mxCell id="eapyg9Jbp8PL5M-LjnbU-153" style="edgeStyle=orthogonalEdgeStyle;rounded=0;orthogonalLoop=1;jettySize=auto;html=1;exitX=1;exitY=0.5;exitDx=0;exitDy=0;entryX=0.5;entryY=0;entryDx=0;entryDy=0;endArrow=none;endFill=0;" edge="1" parent="1" source="eapyg9Jbp8PL5M-LjnbU-146" target="eapyg9Jbp8PL5M-LjnbU-79">
          <mxGeometry relative="1" as="geometry" />
        </mxCell>
        <mxCell id="eapyg9Jbp8PL5M-LjnbU-146" value="&lt;font style=&quot;font-size: 15px&quot;&gt;has price at &lt;br&gt;vendor&lt;/font&gt;" style="shape=rhombus;perimeter=rhombusPerimeter;whiteSpace=wrap;html=1;align=center;" vertex="1" parent="1">
          <mxGeometry x="485" y="90" width="150" height="80" as="geometry" />
        </mxCell>
        <mxCell id="eapyg9Jbp8PL5M-LjnbU-147" value="price_id" style="ellipse;whiteSpace=wrap;html=1;align=center;fontStyle=4;" vertex="1" parent="1">
          <mxGeometry x="510" y="170" width="100" height="40" as="geometry" />
        </mxCell>
        <mxCell id="eapyg9Jbp8PL5M-LjnbU-148" value="&lt;span style=&quot;border-bottom: 1px dotted&quot;&gt;product_id&lt;/span&gt;" style="ellipse;whiteSpace=wrap;html=1;align=center;" vertex="1" parent="1">
          <mxGeometry x="510" y="210" width="100" height="40" as="geometry" />
        </mxCell>
        <mxCell id="eapyg9Jbp8PL5M-LjnbU-149" value="&lt;span style=&quot;border-bottom: 1px dotted&quot;&gt;vendor_id&lt;/span&gt;" style="ellipse;whiteSpace=wrap;html=1;align=center;" vertex="1" parent="1">
          <mxGeometry x="510" y="250" width="100" height="40" as="geometry" />
        </mxCell>
        <mxCell id="eapyg9Jbp8PL5M-LjnbU-150" value="price_in_cents" style="ellipse;whiteSpace=wrap;html=1;align=center;" vertex="1" parent="1">
          <mxGeometry x="510" y="290" width="100" height="40" as="geometry" />
        </mxCell>
        <mxCell id="eapyg9Jbp8PL5M-LjnbU-151" value="timestamp" style="ellipse;whiteSpace=wrap;html=1;align=center;" vertex="1" parent="1">
          <mxGeometry x="510" y="330" width="100" height="40" as="geometry" />
        </mxCell>
        <mxCell id="eapyg9Jbp8PL5M-LjnbU-152" style="edgeStyle=orthogonalEdgeStyle;rounded=0;orthogonalLoop=1;jettySize=auto;html=1;entryX=0;entryY=0.5;entryDx=0;entryDy=0;exitX=0.5;exitY=0;exitDx=0;exitDy=0;endArrow=none;endFill=0;" edge="1" parent="1" source="eapyg9Jbp8PL5M-LjnbU-1" target="eapyg9Jbp8PL5M-LjnbU-146">
          <mxGeometry relative="1" as="geometry" />
        </mxCell>
        <mxCell id="eapyg9Jbp8PL5M-LjnbU-154" value="n" style="text;html=1;align=center;verticalAlign=middle;resizable=0;points=[];autosize=1;fontSize=19;fontStyle=1" vertex="1" parent="1">
          <mxGeometry x="220" y="105" width="30" height="30" as="geometry" />
        </mxCell>
        <mxCell id="eapyg9Jbp8PL5M-LjnbU-155" value="m" style="text;html=1;align=center;verticalAlign=middle;resizable=0;points=[];autosize=1;fontSize=19;fontStyle=1" vertex="1" parent="1">
          <mxGeometry x="820" y="105" width="30" height="30" as="geometry" />
        </mxCell>
        <mxCell id="eapyg9Jbp8PL5M-LjnbU-159" style="edgeStyle=orthogonalEdgeStyle;rounded=0;orthogonalLoop=1;jettySize=auto;html=1;entryX=0.5;entryY=0;entryDx=0;entryDy=0;fontSize=19;endArrow=none;endFill=0;" edge="1" parent="1" source="eapyg9Jbp8PL5M-LjnbU-157" target="eapyg9Jbp8PL5M-LjnbU-14">
          <mxGeometry relative="1" as="geometry" />
        </mxCell>
        <mxCell id="eapyg9Jbp8PL5M-LjnbU-157" value="&lt;font style=&quot;font-size: 15px&quot;&gt;belongs to &lt;br&gt;category&lt;/font&gt;" style="shape=rhombus;perimeter=rhombusPerimeter;whiteSpace=wrap;html=1;align=center;fontSize=19;" vertex="1" parent="1">
          <mxGeometry x="-90" y="90" width="150" height="80" as="geometry" />
        </mxCell>
      </root>
    </mxGraphModel>
  </diagram>
</mxfile>
